<svg width="16" height="15" viewBox="0 0 16 15" fill="black" xmlns="http://www.w3.org/2000/svg">
<path d="M8.13701 3.68159C6.02187 3.68159 4.31579 5.38491 4.31579 7.49663C4.31579 9.60835 6.02187 11.3117 8.13701 11.3117C10.2522 11.3117 11.9582 9.60835 11.9582 7.49663C11.9582 5.38491 10.2522 3.68159 8.13701 3.68159ZM8.13701 9.9769C6.77015 9.9769 5.65272 8.8646 5.65272 7.49663C5.65272 6.12866 6.76683 5.01636 8.13701 5.01636C9.5072 5.01636 10.6213 6.12866 10.6213 7.49663C10.6213 8.8646 9.50387 9.9769 8.13701 9.9769ZM13.0058 3.52554C13.0058 4.02026 12.6067 4.41538 12.1145 4.41538C11.619 4.41538 11.2233 4.01694 11.2233 3.52554C11.2233 3.03413 11.6223 2.63569 12.1145 2.63569C12.6067 2.63569 13.0058 3.03413 13.0058 3.52554ZM15.5367 4.42866C15.4801 3.23667 15.2074 2.18081 14.3328 1.31089C13.4614 0.440967 12.4039 0.168701 11.21 0.108936C9.97945 0.039209 6.29125 0.039209 5.06075 0.108936C3.87015 0.165381 2.81258 0.437646 1.93792 1.30757C1.06326 2.17749 0.793883 3.23335 0.73402 4.42534C0.664181 5.65386 0.664181 9.33608 0.73402 10.5646C0.790557 11.7566 1.06326 12.8124 1.93792 13.6824C2.81258 14.5523 3.86682 14.8246 5.06075 14.8843C6.29125 14.9541 9.97945 14.9541 11.21 14.8843C12.4039 14.8279 13.4614 14.5556 14.3328 13.6824C15.2041 12.8124 15.4768 11.7566 15.5367 10.5646C15.6065 9.33608 15.6065 5.65718 15.5367 4.42866ZM13.947 11.8828C13.6876 12.5335 13.1854 13.0349 12.5303 13.2972C11.5492 13.6857 9.22119 13.596 8.13701 13.596C7.05284 13.596 4.72153 13.6824 3.74377 13.2972C3.09194 13.0382 2.58976 12.5369 2.32703 11.8828C1.93792 10.9033 2.02771 8.57905 2.02771 7.49663C2.02771 6.41421 1.94125 4.08667 2.32703 3.1105C2.58643 2.45972 3.08861 1.95835 3.74377 1.69604C4.72485 1.30757 7.05284 1.39722 8.13701 1.39722C9.22119 1.39722 11.5525 1.31089 12.5303 1.69604C13.1821 1.95503 13.6843 2.4564 13.947 3.1105C14.3361 4.08999 14.2463 6.41421 14.2463 7.49663C14.2463 8.57905 14.3361 10.9066 13.947 11.8828Z" fill="white"/>
</svg>
