<?xml version="1.0" encoding="UTF-8"?>
<svg xmlns="http://www.w3.org/2000/svg" xmlns:xlink="http://www.w3.org/1999/xlink" width="300" height="150" viewBox="0 0 146.02 29.84" version="1.1">
<defs>
<clipPath id="clip1">
  <path d="M 0 0 L 146.019531 0 L 146.019531 29.839844 L 0 29.839844 Z M 0 0 "/>
</clipPath>
</defs>
<g id="surface1">
<g clip-path="url(#clip1)" clip-rule="nonzero">
<path style=" stroke:none;fill-rule:evenodd;fill:rgb(97.299194%,59.999084%,12.199402%);fill-opacity:1;" d="M 17.613281 17.28125 L 14.941406 17.28125 C 14.71875 19.066406 13.753906 20.03125 12.136719 20.03125 C 10.15625 20.03125 8.898438 18.414063 8.898438 15.890625 C 8.898438 13.847656 9.8125 11.734375 12.171875 11.734375 C 13.617188 11.734375 14.617188 12.523438 14.890625 13.867188 L 17.523438 13.867188 C 17.316406 11.339844 15.164063 9.484375 12.222656 9.484375 C 8.46875 9.484375 6.195313 12.320313 6.195313 15.875 C 6.195313 19.738281 8.554688 22.296875 12.117188 22.296875 C 15.476563 22.296875 17.335938 20.269531 17.613281 17.28125 M 26.769531 19.703125 L 20.777344 19.703125 L 20.777344 9.777344 L 18.089844 9.777344 L 18.089844 22.003906 L 26.769531 22.003906 Z M 32.519531 9.484375 C 28.847656 9.484375 26.441406 12.027344 26.441406 15.910156 C 26.441406 19.738281 28.867188 22.296875 32.5 22.296875 C 36.097656 22.296875 38.527344 19.71875 38.527344 15.910156 C 38.527344 12.078125 36.097656 9.484375 32.519531 9.484375 M 32.484375 11.683594 C 34.53125 11.683594 35.804688 13.28125 35.804688 15.855469 C 35.804688 18.46875 34.546875 20.078125 32.519531 20.078125 C 30.433594 20.0625 29.160156 18.484375 29.160156 15.855469 C 29.160156 13.316406 30.449219 11.683594 32.484375 11.683594 M 49.472656 9.777344 L 46.789063 9.777344 L 46.789063 17.09375 C 46.789063 18.894531 46.359375 20.03125 44.292969 20.03125 C 42.191406 20.03125 41.660156 18.964844 41.660156 17.09375 L 41.660156 9.777344 L 38.972656 9.777344 L 38.972656 17.09375 C 38.972656 20.578125 40.609375 22.246094 44.257813 22.246094 C 47.839844 22.246094 49.472656 20.613281 49.472656 17.125 Z M 50.488281 22.003906 L 55.445313 22.003906 C 59.253906 22.003906 61.390625 19.824219 61.390625 15.890625 C 61.390625 11.941406 59.253906 9.777344 55.445313 9.777344 L 50.488281 9.777344 Z M 53.160156 19.773438 L 53.160156 12.011719 L 55.121094 12.011719 C 57.546875 12.011719 58.683594 13.433594 58.683594 15.890625 C 58.683594 18.347656 57.582031 19.773438 55.121094 19.773438 Z M 76.457031 9.777344 L 67.816406 9.777344 L 67.816406 22.003906 L 70.5 22.003906 L 70.5 16.992188 L 75.683594 16.992188 L 75.683594 14.859375 L 70.5 14.859375 L 70.5 12.027344 L 76.457031 12.027344 Z M 81.84375 9.777344 L 79.074219 9.777344 L 74.40625 22.003906 L 77.160156 22.003906 L 78.160156 19.273438 L 82.722656 19.273438 L 83.6875 22.003906 L 86.511719 22.003906 Z M 82.070313 17.316406 L 78.816406 17.316406 L 80.449219 12.777344 Z M 96.863281 17.28125 L 94.195313 17.28125 C 93.96875 19.066406 93.007813 20.03125 91.386719 20.03125 C 89.40625 20.03125 88.152344 18.414063 88.152344 15.890625 C 88.152344 13.847656 89.0625 11.734375 91.421875 11.734375 C 92.871094 11.734375 93.867188 12.523438 94.144531 13.867188 L 96.777344 13.867188 C 96.570313 11.339844 94.417969 9.484375 91.472656 9.484375 C 87.71875 9.484375 85.445313 12.320313 85.445313 15.875 C 85.445313 19.738281 87.804688 22.296875 91.371094 22.296875 C 94.726563 22.296875 96.589844 20.269531 96.863281 17.28125 M 106.828125 9.777344 L 96.757813 9.777344 L 96.757813 12.0625 L 100.441406 12.0625 L 100.441406 22.003906 L 103.144531 22.003906 L 103.144531 12.0625 L 106.828125 12.0625 Z M 112.382813 9.484375 C 108.71875 9.484375 106.304688 12.027344 106.304688 15.910156 C 106.304688 19.738281 108.734375 22.296875 112.363281 22.296875 C 115.964844 22.296875 118.394531 19.71875 118.394531 15.910156 C 118.394531 12.078125 115.964844 9.484375 112.382813 9.484375 M 112.351563 11.683594 C 114.398438 11.683594 115.671875 13.28125 115.671875 15.855469 C 115.671875 18.46875 114.414063 20.078125 112.382813 20.078125 C 110.300781 20.0625 109.027344 18.484375 109.027344 15.855469 C 109.027344 13.316406 110.320313 11.683594 112.351563 11.683594 M 119.011719 9.777344 L 119.011719 22.003906 L 121.679688 22.003906 L 121.679688 17.214844 L 124.074219 17.214844 C 125.828125 17.214844 126.34375 17.816406 126.519531 19.496094 C 126.585938 20.164063 126.585938 21.386719 126.894531 22.003906 L 129.683594 22.003906 C 129.203125 21.558594 129.171875 19.875 129.101563 19.101563 C 128.996094 17.902344 128.652344 16.527344 127.292969 16.253906 C 128.515625 15.789063 129.238281 14.671875 129.238281 13.246094 C 129.238281 10.789063 127.359375 9.777344 125.105469 9.777344 Z M 121.679688 11.890625 L 124.347656 11.890625 C 125.484375 11.890625 126.605469 12.132813 126.605469 13.539063 C 126.605469 15.050781 125.484375 15.273438 124.226563 15.273438 L 121.679688 15.273438 Z M 139.824219 9.777344 L 136.847656 9.777344 L 133.953125 14.671875 L 131.09375 9.777344 L 128.03125 9.777344 L 132.609375 17.246094 L 132.609375 22.003906 L 135.261719 22.003906 L 135.261719 17.296875 Z M 71.921875 0.0742188 L 74.117188 0.0742188 C 74.171875 0.0742188 74.21875 0.121094 74.21875 0.175781 L 74.21875 0.210938 C 74.21875 0.265625 74.171875 0.3125 74.117188 0.3125 L 71.921875 0.3125 C 71.867188 0.3125 71.820313 0.265625 71.820313 0.210938 L 71.820313 0.175781 C 71.820313 0.121094 71.867188 0.0742188 71.921875 0.0742188 M 71.921875 4.464844 L 74.117188 4.464844 C 74.171875 4.464844 74.21875 4.507813 74.21875 4.566406 L 74.21875 4.601563 C 74.21875 4.65625 74.171875 4.699219 74.117188 4.699219 L 71.921875 4.699219 C 71.867188 4.699219 71.820313 4.65625 71.820313 4.601563 L 71.820313 4.566406 C 71.820313 4.507813 71.867188 4.464844 71.921875 4.464844 M 72.265625 1.148438 L 73.765625 1.148438 L 73.019531 2.027344 Z M 72.664063 4.117188 L 73.363281 4.117188 L 73.015625 3.707031 Z M 71.925781 0.464844 L 74.113281 0.464844 C 74.140625 0.464844 74.167969 0.472656 74.1875 0.496094 C 74.207031 0.515625 74.214844 0.542969 74.214844 0.574219 C 74.140625 1.445313 73.175781 1.671875 73.179688 2.371094 C 73.1875 2.996094 74.144531 3.261719 74.214844 4.203125 C 74.214844 4.234375 74.207031 4.261719 74.1875 4.28125 C 74.167969 4.300781 74.140625 4.3125 74.113281 4.3125 L 71.925781 4.3125 C 71.898438 4.3125 71.871094 4.300781 71.851563 4.28125 C 71.832031 4.261719 71.820313 4.234375 71.824219 4.203125 C 71.894531 3.261719 72.863281 3.015625 72.863281 2.390625 C 72.867188 1.683594 71.902344 1.449219 71.828125 0.574219 C 71.824219 0.542969 71.832031 0.515625 71.851563 0.496094 C 71.871094 0.472656 71.898438 0.464844 71.925781 0.464844 M 100.339844 1.925781 L 146.019531 1.925781 L 146.019531 29.839844 L 0 29.839844 L 0 1.925781 L 45.613281 1.925781 L 45.613281 2.851563 L 0.925781 2.851563 L 0.925781 28.917969 L 145.09375 28.917969 L 145.09375 2.851563 L 100.339844 2.851563 "/>
</g>
<path style=" stroke:none;fill-rule:nonzero;fill:rgb(97.299194%,59.999084%,12.199402%);fill-opacity:1;" d="M 95.355469 4.695313 L 92.617188 4.695313 L 92.617188 0.0742188 L 95.289063 0.0742188 L 95.289063 0.835938 L 93.429688 0.835938 L 93.429688 1.984375 L 95.09375 1.984375 L 95.09375 2.742188 L 93.429688 2.742188 L 93.429688 3.9375 L 95.355469 3.9375 Z M 89.246094 4.695313 L 88.4375 4.695313 L 88.4375 0.0742188 L 91.074219 0.0742188 L 91.074219 0.835938 L 89.246094 0.835938 L 89.246094 2.140625 L 90.878906 2.140625 L 90.878906 2.898438 L 89.246094 2.898438 Z M 85.59375 2.753906 L 84.917969 1.113281 L 84.238281 2.753906 Z M 83.449219 4.695313 L 82.632813 4.695313 L 84.585938 0.0625 L 85.292969 0.0625 L 87.25 4.695313 L 86.382813 4.695313 L 85.902344 3.511719 L 83.929688 3.511719 Z M 81.332031 3.636719 L 81.644531 4.246094 C 81.5 4.402344 81.289063 4.527344 81.019531 4.621094 C 80.75 4.71875 80.464844 4.769531 80.164063 4.769531 C 79.460938 4.769531 78.886719 4.550781 78.445313 4.113281 C 78.003906 3.679688 77.785156 3.101563 77.785156 2.386719 C 77.785156 1.699219 77.992188 1.132813 78.410156 0.675781 C 78.824219 0.226563 79.402344 0.00390625 80.144531 0.00390625 C 80.734375 0.00390625 81.203125 0.160156 81.550781 0.472656 L 81.1875 1.070313 C 80.875 0.863281 80.527344 0.761719 80.144531 0.761719 C 79.707031 0.761719 79.34375 0.90625 79.0625 1.203125 C 78.785156 1.5 78.640625 1.894531 78.640625 2.386719 C 78.640625 2.867188 78.789063 3.261719 79.085938 3.558594 C 79.378906 3.859375 79.765625 4.007813 80.238281 4.007813 C 80.640625 4.007813 81.007813 3.882813 81.332031 3.636719 M 67.417969 4.695313 L 64.683594 4.695313 L 64.683594 0.0742188 L 67.355469 0.0742188 L 67.355469 0.835938 L 65.492188 0.835938 L 65.492188 1.984375 L 67.15625 1.984375 L 67.15625 2.742188 L 65.492188 2.742188 L 65.492188 3.9375 L 67.417969 3.9375 Z M 59.085938 4.695313 L 58.277344 4.695313 L 58.277344 0.0742188 L 59.09375 0.0742188 L 60.667969 2.234375 L 62.171875 0.0742188 L 62.9375 0.0742188 L 62.9375 4.695313 L 62.132813 4.695313 L 62.132813 1.355469 L 60.675781 3.40625 L 60.558594 3.40625 L 59.085938 1.378906 Z M 56.332031 4.695313 L 55.523438 4.695313 L 55.523438 0.0742188 L 56.332031 0.0742188 Z M 52.160156 0.835938 L 50.664063 0.835938 L 50.664063 0.0742188 L 54.46875 0.0742188 L 54.46875 0.835938 L 52.972656 0.835938 L 52.972656 4.695313 L 52.160156 4.695313 "/>
</g>
</svg>
